<svg width="92" height="23" viewBox="0 0 92 23" xmlns="http://www.w3.org/2000/svg">
<g clip-path="url(#clip0_561_63)">
<path d="M33.5285 12.417C33.4917 10.9779 32.8628 9.67016 31.4543 8.95059C29.4153 7.90902 25.9109 7.91067 24.1763 10.4144C24.1362 10.4735 24.1562 10.5737 24.1445 10.6542C24.081 10.6066 24.0191 10.5573 23.9555 10.508C23.9555 9.93959 23.9555 9.37281 23.9555 8.76002C22.6558 8.76002 21.4397 8.76002 20.2354 8.76002C20.2354 13.4602 20.2354 18.1161 20.2354 22.7588C21.5568 22.7588 22.8398 22.7588 24.1612 22.7588C24.1612 22.5157 24.1612 22.3037 24.1612 22.0951C24.1612 19.7918 24.1261 17.4836 24.183 15.1836C24.2064 14.3753 24.3536 13.5309 24.6396 12.7768C25.0545 11.6942 26.2789 11.2079 27.6422 11.4132C28.7395 11.5775 29.3852 12.2281 29.5708 13.4225C29.6495 13.917 29.693 14.4147 29.693 14.9125C29.7063 17.3324 29.7013 19.7491 29.7013 22.1723C29.7013 22.3727 29.7013 22.5765 29.7013 22.7588C31.0696 22.7588 32.3492 22.7588 33.5586 22.7588C33.5586 19.2809 33.6239 15.8473 33.5285 12.417Z"/>
<path d="M45.3533 0.895203C45.3533 4.00513 45.3533 7.1167 45.3533 10.3153C45.0773 10.0262 44.9016 9.82084 44.7043 9.63684C42.4427 7.52742 38.2626 7.9447 36.344 10.5667C34.3183 13.3316 34.2798 16.3923 35.5243 19.4447C36.7086 22.3641 39.5071 23.6931 42.6368 23.0343C43.8478 22.7748 44.8046 22.1423 45.5975 20.9808C45.5975 21.7003 45.5975 22.2261 45.5975 22.7649C46.8704 22.7649 48.0865 22.7649 49.3444 22.7649C49.3444 15.4493 49.3444 8.17306 49.3444 0.895203C48.0163 0.895203 46.6848 0.895203 45.3533 0.895203ZM45.007 18.3982C44.5822 19.5203 43.6889 20.1298 42.4728 20.2316C41.2685 20.3318 40.2933 19.8883 39.5958 18.9042C38.465 17.3008 38.4064 14.2911 39.4787 12.6449C40.1879 11.5606 41.2417 11.1778 42.4996 11.2764C43.6772 11.3684 44.5654 11.9533 44.9786 13.0211C45.4871 14.6623 45.4219 15.6941 45.4219 15.6941C45.4219 15.6941 45.549 16.9541 45.007 18.3982Z"/>
<path d="M14.5801 8.74054C14.5801 13.4638 14.5801 18.1163 14.5801 22.7623C15.8865 22.7623 17.1444 22.7623 18.4156 22.7623C18.4156 18.0736 18.4156 13.4227 18.4156 8.74054C17.126 8.74054 15.8631 8.74054 14.5801 8.74054Z"/>
<path d="M14.202 1.64124L14.1886 1.65438L14.1836 3.56995L15.7593 4.48338L14.1752 5.53973L14.1719 7.41424C15.7794 6.39402 17.2731 5.44938 18.8204 4.46531L14.202 1.64124Z"/>
<path d="M10.6017 8.70601C10.1969 8.69287 10.0163 8.83908 9.86073 9.18408C8.96247 11.1834 8.0408 13.1729 7.1208 15.1657C7.03884 15.3415 6.94516 15.5189 6.80967 15.7818C6.68756 15.5189 6.61062 15.3678 6.54371 15.2117C5.65215 13.1894 4.75222 11.1654 3.87404 9.1348C3.73855 8.8243 3.57796 8.69944 3.22502 8.7093C2.15113 8.73887 1.07556 8.73065 0 8.73887C0 8.77501 0 8.81444 0 8.85223C0.0719273 8.9623 0.158909 9.07072 0.214109 9.18737C2.30167 13.4999 4.38422 17.8124 6.47011 22.1249C6.5688 22.322 6.67418 22.5159 6.82807 22.8017C9.16655 18.0604 11.4532 13.4292 13.7783 8.71751C12.6592 8.71751 11.6271 8.73887 10.6017 8.70601Z"/>
<path d="M51.3076 1.03961L51.2976 1.05111L51.2909 2.96997L52.8666 3.8834L51.2875 4.93811L51.2842 6.81261C52.8883 5.79404 54.3837 4.84775 55.931 3.86368L51.3076 1.03961Z"/>
<path d="M91.164 19.8849C91.1255 17.442 91.1589 15.004 91.1506 12.566C91.1439 10.565 90.3008 9.41662 88.3705 8.78083C86.9554 8.31591 85.4884 8.27648 84.0214 8.35205C82.5327 8.42433 81.1042 8.73155 79.8848 9.61869C78.7323 10.4582 78.1702 11.5967 78.0983 13.0309C79.4214 13.0309 80.6893 13.0309 81.7766 13.0309C82.2383 12.3787 82.5009 11.6739 83.0144 11.3486C84.0582 10.6866 85.2626 10.7638 86.3833 11.273C87.0658 11.5753 87.1879 12.2391 87.1845 12.8896C87.1795 13.4975 86.7931 13.877 86.2144 14.0445C85.7276 14.1842 85.2308 14.291 84.734 14.3813C83.2754 14.6409 81.7816 14.7658 80.3682 15.1699C78.4763 15.7022 77.6483 17.0214 77.6533 18.9978C77.6567 20.91 78.6001 22.2736 80.3933 22.8535C80.9603 23.0359 81.5792 23.1246 82.1747 23.1542C84.0616 23.2544 85.8213 22.8683 87.2983 21.5409C87.4154 21.996 87.5141 22.3919 87.6111 22.7599C88.9744 22.7599 90.2707 22.7599 91.4433 22.7599C91.3429 21.7775 91.184 20.8312 91.164 19.8849ZM87.0858 18.247C86.9169 19.3953 86.2562 20.2085 85.0702 20.4254C84.3911 20.542 83.6651 20.5355 82.986 20.4386C82.1714 20.3252 81.7315 19.8011 81.6227 19.0585C81.5006 18.2848 81.7967 17.511 82.5109 17.2169C83.2336 16.913 84.0314 16.775 84.8026 16.5976C85.2057 16.5039 85.6172 16.494 86.0153 16.402C86.3866 16.3199 86.7496 16.1753 87.2364 16.0176C87.1896 16.8045 87.1929 17.5323 87.0858 18.247Z"/>
<path d="M72.3115 1.03961L72.3031 1.05111L72.2931 2.96997L73.8705 3.8834L72.2898 4.93811L72.2881 6.81261C73.8922 5.79404 75.3843 4.84775 76.9333 3.86368L72.3115 1.03961Z"/>
<path d="M67.4831 17.3737C67.0984 17.3655 66.9579 17.4756 66.8659 17.86C66.5079 19.3567 65.526 20.1584 64.034 20.2455C62.6724 20.3243 61.57 19.6014 61.0348 18.2067C60.3975 16.5572 60.4343 14.8897 61.0833 13.2534C61.4396 12.3647 62.0451 11.6779 63.027 11.3888C64.8703 10.8467 66.2236 11.6319 66.8726 13.6477C68.1037 13.6477 69.3499 13.6477 70.6797 13.6477C70.6529 12.4369 70.2465 11.42 69.5038 10.5378C67.2958 7.9273 62.2492 7.50509 59.3821 9.72952C57.1289 11.4742 56.5084 13.8991 56.6656 16.572C56.8044 18.9394 57.8097 20.8632 59.9007 22.1446C61.4095 23.0679 63.0772 23.265 64.8101 23.1435C68.0602 22.9102 70.5693 20.5001 70.765 17.3819C69.6677 17.3819 68.5704 17.3984 67.4831 17.3737Z"/>
<path d="M51.2842 8.75977C51.2842 13.4567 51.2842 18.1093 51.2842 22.7684C52.5889 22.7684 53.8535 22.7684 55.1448 22.7684C55.1448 18.0846 55.1448 13.4271 55.1448 8.75977C53.8384 8.75977 52.5638 8.75977 51.2842 8.75977Z"/>
<path d="M72.293 8.74054C72.293 13.4572 72.293 18.113 72.293 22.7689C73.6027 22.7689 74.8673 22.7689 76.1553 22.7689C76.1553 18.0802 76.1553 13.426 76.1553 8.74054C74.8656 8.74054 73.601 8.74054 72.293 8.74054Z"/>
</g>
<defs>
<clipPath id="clip0_561_63">
<rect width="92" height="23"/>
</clipPath>
</defs>
</svg>
