<svg xmlns="http://www.w3.org/2000/svg" xmlns:xlink="http://www.w3.org/1999/xlink" id="Layer_1"
                        data-name="Layer 1" viewBox="0 0 461.27 282.71">
						<style>
							.cls-1,
.cls-10,
.cls-2,
.cls-3,
.cls-7,
.cls-8 {
    fill: none;
}

.cls-2,
.cls-8 {
    stroke: #ff4600;
}

.cls-10,
.cls-11,
.cls-2,
.cls-3,
.cls-7,
.cls-8 {
    stroke-linecap: round;
}

.cls-11,
.cls-2,
.cls-3,
.cls-9 {
    stroke-miterlimit: 10;
}

.cls-10,
.cls-11,
.cls-3,
.cls-9 {
    stroke: #000;
}

.cls-4,
.cls-5 {
    fill: #ff4600;
}

.cls-4 {
    opacity: 0.3;
}

.cls-6 {
    fill: url(#_10_dpi_10_);
}

.cls-7 {
    stroke: #f9f3ee;
}

.cls-10,
.cls-7,
.cls-8 {
    stroke-linejoin: round;
}

.cls-12 {
    fill: #f9f3ee;
}

						</style>
                        <defs>
                            <pattern id="_10_dpi_10_" data-name="10 dpi 10%" width="28.8" height="28.8"
                                patternTransform="translate(-473.81 -365.66)" patternUnits="userSpaceOnUse"
                                viewBox="0 0 28.8 28.8">
                                <rect class="cls-1" width="28.8" height="28.8"></rect>
                                <path d="M9.36,28a.72.72,0,1,0-.72-.72A.72.72,0,0,0,9.36,28Z"></path>
                                <path d="M9.36,13.64a.72.72,0,1,0-.72-.72A.72.72,0,0,0,9.36,13.64Z"></path>
                                <path d="M3.43,20.84a.72.72,0,1,0-.72-.72A.72.72,0,0,0,3.43,20.84Z"></path>
                                <path d="M15.22,20.84a.72.72,0,1,0-.72-.72A.72.72,0,0,0,15.22,20.84Z"></path>
                                <path d="M3.43,5.72A.72.72,0,1,0,2.71,5,.72.72,0,0,0,3.43,5.72Z"></path>
                                <path d="M9.36,5.72A.72.72,0,1,0,8.64,5,.72.72,0,0,0,9.36,5.72Z"></path>
                                <path d="M9.36,20.84a.72.72,0,1,0-.72-.72A.72.72,0,0,0,9.36,20.84Z"></path>
                                <path d="M15.22,13.64a.72.72,0,1,0-.72-.72A.72.72,0,0,0,15.22,13.64Z"></path>
                                <path d="M3.43,13.64a.72.72,0,1,0-.72-.72A.72.72,0,0,0,3.43,13.64Z"></path>
                                <path d="M3.43,28a.72.72,0,1,0-.72-.72A.72.72,0,0,0,3.43,28Z"></path>
                                <path d="M15.22,28a.72.72,0,1,0-.72-.72A.72.72,0,0,0,15.22,28Z"></path>
                                <path d="M26.8,5.72A.72.72,0,1,0,26.08,5,.72.72,0,0,0,26.8,5.72Z"></path>
                                <path d="M26.8,13.64a.72.72,0,1,0-.72-.72A.72.72,0,0,0,26.8,13.64Z"></path>
                                <path d="M26.8,20.84a.72.72,0,1,0-.72-.72A.72.72,0,0,0,26.8,20.84Z"></path>
                                <path d="M26.8,28a.72.72,0,1,0-.72-.72A.72.72,0,0,0,26.8,28Z"></path>
                                <path d="M15.22,5.72A.72.72,0,1,0,14.5,5,.72.72,0,0,0,15.22,5.72Z"></path>
                                <circle cx="21.03" cy="27.32" r="0.72"></circle>
                                <path d="M21,13.64a.72.72,0,0,0,0-1.44.72.72,0,0,0,0,1.44Z"></path>
                                <path d="M9.36,9.83a.72.72,0,1,0-.72-.72A.72.72,0,0,0,9.36,9.83Z"></path>
                                <path d="M15.22,9.83a.72.72,0,1,0-.72-.72A.72.72,0,0,0,15.22,9.83Z"></path>
                                <path d="M3.43,9.83a.72.72,0,1,0-.72-.72A.72.72,0,0,0,3.43,9.83Z"></path>
                                <path d="M26.8,9.83a.72.72,0,1,0-.72-.72A.72.72,0,0,0,26.8,9.83Z"></path>
                                <path d="M21,9.83a.72.72,0,0,0,0-1.44.72.72,0,0,0,0,1.44Z"></path>
                                <path d="M9.36,17a.72.72,0,1,0-.72-.72A.72.72,0,0,0,9.36,17Z"></path>
                                <path d="M15.22,17a.72.72,0,1,0-.72-.72A.72.72,0,0,0,15.22,17Z"></path>
                                <path d="M3.43,17a.72.72,0,1,0-.72-.72A.72.72,0,0,0,3.43,17Z"></path>
                                <path d="M26.8,17a.72.72,0,1,0-.72-.72A.72.72,0,0,0,26.8,17Z"></path>
                                <path d="M21,17a.72.72,0,1,0-.71-.72A.72.72,0,0,0,21,17Z"></path>
                                <path d="M21,20.84a.72.72,0,0,0,0-1.44.72.72,0,0,0,0,1.44Z"></path>
                                <path d="M3.43,24.38a.72.72,0,1,0-.72-.72A.72.72,0,0,0,3.43,24.38Z"></path>
                                <path d="M15.22,24.38a.72.72,0,1,0-.72-.72A.72.72,0,0,0,15.22,24.38Z"></path>
                                <path d="M9.36,24.38a.72.72,0,1,0-.72-.72A.72.72,0,0,0,9.36,24.38Z"></path>
                                <path d="M26.8,24.38a.72.72,0,1,0-.72-.72A.72.72,0,0,0,26.8,24.38Z"></path>
                                <path d="M21,24.38a.72.72,0,1,0-.72-.72A.72.72,0,0,0,21,24.38Z"></path>
                                <path d="M21,5.72A.72.72,0,1,0,20.32,5,.72.72,0,0,0,21,5.72Z"></path>
                                <path d="M3.43,2.2a.72.72,0,1,0-.72-.72A.72.72,0,0,0,3.43,2.2Z"></path>
                                <path d="M9.36,2.2a.72.72,0,1,0-.72-.72A.72.72,0,0,0,9.36,2.2Z"></path>
                                <path d="M26.8,2.2a.72.72,0,1,0-.72-.72A.72.72,0,0,0,26.8,2.2Z"></path>
                                <path d="M15.22,2.2a.72.72,0,1,0-.72-.72A.72.72,0,0,0,15.22,2.2Z"></path>
                                <path d="M21,2.2a.72.72,0,1,0-.71-.72A.72.72,0,0,0,21,2.2Z"></path>
                            </pattern>
                        </defs>
                        <rect class="cls-2" x="78.96" y="133.51" width="17.18" height="19.34"></rect>
                        <path class="cls-2"
                            d="M81.79,148.87H78a3.32,3.32,0,0,1-3.32-3.32v-4.18A3.32,3.32,0,0,1,78,138.05h3.76">
                        </path>
                        <rect class="cls-3" x="186.61" y="64.25" width="7.58" height="62.02"></rect>
                        <line class="cls-3" x1="117.73" y1="120.59" x2="117.73" y2="152.85"></line>
                        <line class="cls-3" x1="122.81" y1="120.59" x2="122.81" y2="152.85"></line>
                        <line class="cls-3" x1="127.9" y1="120.59" x2="127.9" y2="152.85"></line>
                        <path class="cls-4"
                            d="M151,147.93V112.59a5.37,5.37,0,1,0-10.74,0v35.34h-6.82v4.92h47.91v-4.92Z"></path>
                        <circle class="cls-3" cx="117.73" cy="120.59" r="1.28"></circle>
                        <circle class="cls-3" cx="122.81" cy="120.59" r="1.28"></circle>
                        <circle class="cls-3" cx="127.9" cy="120.59" r="1.28"></circle>
                        <path class="cls-5" d="M113,84.67h16.42s-.49,14.14-6.83,19.65h-16.9S112.83,92.81,113,84.67Z">
                        </path>
                        <path class="cls-6"
                            d="M129.45,84.67s1.68,15-3.18,22.06H109.09v-2.41h13.53S128.62,99.84,129.45,84.67Z">
                        </path>
                        <line class="cls-7" x1="115.11" y1="90.2" x2="125.33" y2="90.2"></line>
                        <line class="cls-7" x1="113.52" y1="94.14" x2="123.74" y2="94.14"></line>
                        <polyline class="cls-3" points="186.61 126.27 102.03 126.27 102.03 64.25 186.61 64.25">
                        </polyline>
                        <path class="cls-2"
                            d="M286.24,128.27c5.5,1,11.11,2.29,16.62,3.89a10.19,10.19,0,0,1,6.29,14.32l-4.92,10.12">
                        </path>
                        <path class="cls-3"
                            d="M275.89,84.35c-4.08,1.54-7.5,2.7-11.21.4h0c-3.89-2.4-4.47-5.44-3.87-9.79A10.65,10.65,0,0,1,262.24,71l7.94-13.48">
                        </path>
                        <path class="cls-3" d="M263.39,87.4a1.59,1.59,0,0,0-.11.23,12.57,12.57,0,0,1-5.73,6.45"></path>
                        <path class="cls-3" d="M267.35,74.28l-1-.72a.94.94,0,0,1-.17-1.35l.44-.55L269.3,67"></path>
                        <path class="cls-3" d="M268.69,79.29c1.49.11,4.54-.67,5.88-2.75a.54.54,0,0,0-.54-.83l-5.09.73">
                        </path>
                        <path class="cls-8" d="M219.68,204l36.47,4.1a29.79,29.79,0,0,0,29.57-15.5L298.93,168l5.2-10.84">
                        </path>
                        <path class="cls-9"
                            d="M277.49,66.72,277,66a2.16,2.16,0,0,0-.65-.59l-.51-.29a.45.45,0,0,1-.19-.49h0a.42.42,0,0,1,.51-.3l.45.11a2.19,2.19,0,0,1,1.51,1.3l.21.52a.43.43,0,0,1-.22.56l-.06,0A.45.45,0,0,1,277.49,66.72Z">
                        </path>
                        <path class="cls-9"
                            d="M269.84,62.53l-.78-.39a2.33,2.33,0,0,0-.85-.22l-.59,0a.45.45,0,0,1-.4-.35h0a.43.43,0,0,1,.33-.5l.44-.11a2.21,2.21,0,0,1,1.94.47l.43.37a.43.43,0,0,1,.06.59l-.05,0A.43.43,0,0,1,269.84,62.53Z">
                        </path>
                        <path
                            d="M273.47,68.7a.76.76,0,0,0-.09.18.59.59,0,0,1,.1-.17l0,.07a.07.07,0,0,0,0,0h.06s0,0,0,0v0s0,0,0,0l0,0h0l0,0h0a.35.35,0,0,1-.09-.17.85.85,0,0,0,0,.17h0a.22.22,0,0,0,0-.09v0s0,0,0,0h0a.09.09,0,0,0,0,.05h0c-.05.06,0,.16,0,.19h0l.07,0a.47.47,0,0,0,.06.09.07.07,0,0,0,0,.06h0a.08.08,0,0,0,0,0h0s0,0,0,0h0s0,0,.05.07l0,0-.05,0,.06.07a.31.31,0,0,0,.09.07h0c-.14-.08-.12,0-.06,0s.16.1.16.08,0,0,0,0l-.09,0s.05,0,.05,0h0a.28.28,0,0,0,0-.1l.07,0a.23.23,0,0,1-.08-.14.2.2,0,0,0-.07.11h-.06a.05.05,0,0,0,0,0l0,0a.28.28,0,0,0,.13-.07h0a.38.38,0,0,0,.15.09h0a1.07,1.07,0,0,0-.07.15,0,0,0,0,0,0,0s0,0,0,0l0,0s0,0,0,0l.07,0h0l0,0h0v0h0v0s0,0,0,0h0s0,.09.05,0h0a.42.42,0,0,0,.25,0v0h0l0,0a.55.55,0,0,0,.4-.13h0l.05,0h0l0,0,.08,0h0s0,0,0,0v-.06h0a.43.43,0,0,0,0-.07.05.05,0,0,0,0,.06v-.05h0s0,0,0,0h0s0,0,0-.05h0s0,0,0,0,0,0,0-.06v0l0-.11a.74.74,0,0,1-.06.28,2.19,2.19,0,0,0,.22-.67l0,0h0l0-.1,0,0h0l.08-.17v0h0l0-.07a0,0,0,0,1,0,0h0v0h0l0-.07h0l0-.08s.09-.08.09-.13h0a.29.29,0,0,0,0-.11h0s0,0,0,0a.09.09,0,0,0,0-.05v0a.94.94,0,0,0,0-.09h0s0,0,0-.06h0v0a.21.21,0,0,1,0-.08v0a.15.15,0,0,1,.05-.07h0a.5.5,0,0,0,0-.12l0-.06c0-.08,0-.14-.05-.1l-.06-.08-.06-.07,0,0c0-.06,0-.07-.08,0h0a.18.18,0,0,1-.08-.06h0s0,0,0,0h0l-.08,0h0v0a.28.28,0,0,0-.15,0s0,0,.06.06l0,0,0,0v0h-.12l-.12,0,.11,0a.2.2,0,0,0-.15,0,.1.1,0,0,0-.12.06c0-.08-.08,0-.09.08l-.06,0h0v0a.27.27,0,0,0-.07.08h0s-.05.06-.05.11l-.06.1a1.17,1.17,0,0,0-.06.2s0,0,0,.07h0a.2.2,0,0,0,0,.19h0s0,0,0,0l0,.05a.07.07,0,0,0,0-.05.08.08,0,0,0,0,0v0l0,0,0,0h0a2.21,2.21,0,0,0-.16.35.94.94,0,0,1-.06.15.24.24,0,0,0-.06.11l0,0C273.43,68.65,273.44,68.67,273.47,68.7Zm.23.53c-.07,0,0-.09,0-.09h0a.16.16,0,0,0,0,.07S273.68,69.23,273.7,69.23Zm-.07-.2a.31.31,0,0,0,.05.1h0a.15.15,0,0,1-.09-.06Zm.32.37h0l0,0Zm-.28-.65s0,0,.05,0v0Z">
                        </path>
                        <path d="M273.48,68.83s0-.07,0-.06l0,.16C273.52,68.88,273.46,68.87,273.48,68.83Z"></path>
                        <path d="M273.57,69.35l-.1-.12a.16.16,0,0,0,.09.07S273.58,69.33,273.57,69.35Z"></path>
                        <path d="M273.56,69.42l-.05,0Z"></path>
                        <path d="M274.8,66.84a.65.65,0,0,0-.14,0C274.7,66.75,274.76,66.79,274.8,66.84Z"></path>
                        <path d="M273.87,69.68h0S273.86,69.67,273.87,69.68Z"></path>
                        <path
                            d="M266.4,65.68a1.5,1.5,0,0,0-.09.18,1,1,0,0,1,.1-.17l0,.07v0h.09v0s0,0,0,0v0h0l0,0h0a.35.35,0,0,1-.09-.17.85.85,0,0,0,0,.17h0a.22.22,0,0,0,0-.09v.05s0,0,0,0h0s0,0,0,0h0c-.05,0,0,.16,0,.19h.08a.47.47,0,0,0,.06.09.14.14,0,0,0,0,.06h0a.07.07,0,0,0,0,0h0s0,0,0,0h0s0,0,0,0,0,0,0,0h0a.13.13,0,0,0,.05.06l0,0-.05,0s0,0,.06.06a.27.27,0,0,0,.1.08h0c-.14-.08-.12-.05-.06,0s.17.1.16.08,0,0,0,0l-.09,0s.05,0,.05,0h0a.15.15,0,0,0,0-.1l.08,0a.31.31,0,0,1-.09-.14.2.2,0,0,0-.07.11h-.05s0,0,0,0l0,0,.13-.07h0a.45.45,0,0,0,.14.1h0s0,.11-.07.15h0l0,0h0s0,0,0,0l.06,0h0v0h0l0,0h0l0,0s0,0-.05,0h0s0,.09,0,0h0v0a.46.46,0,0,0,.26,0v0h0l0,0a.54.54,0,0,0,.4-.13h0s0,0,0,0h0l0,0,.08,0h0v0a.13.13,0,0,1,0-.06h0a.16.16,0,0,0,0-.07.05.05,0,0,0,0,.06v0h0s0,0,0,0h0s0,0,0,0h0v0h0s0,0,0-.07h0l0-.12a1.5,1.5,0,0,1-.06.29,2.92,2.92,0,0,0,.22-.67l0,0h0l0-.1,0,0h0l.07-.17v0h0l0-.08h0v0h0l0-.07h0l0-.08s.08-.08.08-.13h0a.18.18,0,0,0,0-.11h0a.08.08,0,0,1,0,0s0,0,0,0a0,0,0,0,0,0,0l0-.08h0a.14.14,0,0,0,0-.06h0v0a.19.19,0,0,1,0-.08v0a.35.35,0,0,1,.05-.08h0a.5.5,0,0,0,0-.12l0-.06c0-.08,0-.14,0-.1l-.06-.08a.23.23,0,0,0-.07-.07l0,0c0-.06,0-.07-.07-.05h0l-.09-.06H268l-.07,0h0v0a.32.32,0,0,0-.16,0l.07.06,0,0,0,0v0h-.11l-.13,0,.11,0a.16.16,0,0,0-.15,0c-.05,0-.09,0-.11.06s-.08,0-.1.07,0,0-.05.05h0l-.08.09h0s0,.06-.05.11l-.05.1a1.18,1.18,0,0,0-.07.2v.07h0a.18.18,0,0,0,0,.19h0s0,0,0,0l0,0a.43.43,0,0,0,0,0,.08.08,0,0,0,0,0l0,0,0,0,0,.05h0a1.28,1.28,0,0,0-.16.36l-.06.15a.15.15,0,0,0-.06.11l0,0S266.38,65.65,266.4,65.68Zm.23.53c-.07,0,0-.09,0-.09h0a.43.43,0,0,0,0,.07S266.62,66.2,266.63,66.21Zm-.06-.2a.31.31,0,0,0,.05.1h0a.2.2,0,0,1-.09-.06Zm.31.37h0l0,0Zm-.28-.65a.08.08,0,0,1,.06,0l0,0Z">
                        </path>
                        <path d="M267.06,66.08s0-.07,0-.06l0,.16S267,66.13,267.06,66.08Z"></path>
                        <path d="M267.15,66.6l-.1-.12s.05.07.08.07S267.16,66.59,267.15,66.6Z"></path>
                        <path d="M267.13,66.68l0,0S267.12,66.66,267.13,66.68Z"></path>
                        <path d="M268.38,64.09h-.14C268.27,64,268.33,64,268.38,64.09Z"></path>
                        <path d="M267.45,66.93h0A0,0,0,0,1,267.45,66.93Z"></path>
                        <path class="cls-3"
                            d="M278.14,96.63A5,5,0,0,1,276.41,91a21.28,21.28,0,0,1,4.82-7.8c1.11-1.14,2.15-2,2.79-1.91l.81.07c2.32,1,2.73-.47,2.73-.47s.94-1.87-2.05-3.25">
                        </path>
                        <path class="cls-4"
                            d="M295.18,67.73c-.51-5.74-2.7-6-2.7-6s1.74-7.5-9.06-12.72-17.62-.61-18,4.89c-.1,1.36,1.08,3.3,1.95,4.36a7.93,7.93,0,0,0-1.73,6.18l2.89-5c4.82,4.1,15.93,5.13,15.93,5.13s-5.51,5.53-2,11.06l-1.17,2.15a1.55,1.55,0,0,0,2.13,2.09C286.19,78.29,295.62,72.62,295.18,67.73Z">
                        </path>
                        <path class="cls-5"
                            d="M215.72,152.7l20.11-43.21A22.73,22.73,0,0,1,250.32,96l6.18-1.91s-4.91,4.93,6.69,6.68c11.37,1.72,16.6-3.93,16.6-3.93a20.51,20.51,0,0,0,5.44,1.92,17.76,17.76,0,0,1,10.34,7.45h0a16.24,16.24,0,0,1,2.66,8.92v28.42a9.16,9.16,0,0,1-9.16,9.16H215.72">
                        </path>
                        <path class="cls-7" d="M280.89,65l.44,0a18.05,18.05,0,0,0,7.31-1.93"></path>
                        <rect class="cls-3" x="46.2" y="152.85" width="376.26" height="8.62" rx="1.15"></rect>
                        <line class="cls-3" x1="23.68" y1="281.04" x2="75.01" y2="161.48"></line>
                        <line class="cls-3" x1="100.35" y1="161.48" x2="31.07" y2="281.04"></line>
                        <polygon class="cls-6" points="372.17 165.8 396.83 165.8 395 161.48 369.67 161.48 372.17 165.8">
                        </polygon>
                        <polygon class="cls-6" points="97.85 165.8 73.18 165.8 75.02 161.48 100.35 161.48 97.85 165.8">
                        </polygon>
                        <polyline class="cls-3" points="445.67 281.04 395 161.48 369.67 161.48 438.94 281.04">
                        </polyline>
                        <line class="cls-3" x1="386.77" y1="190.52" x2="386.77" y2="278.9"></line>
                        <rect x="351.09" y="276.75" width="71.37" height="4.29"></rect>
                        <path class="cls-4"
                            d="M361.53,122.09h-4.14c-15,0-21.57,19.12-9.6,28.15l.66.49h18.7l.41-.18C382.27,144.1,377.59,122.09,361.53,122.09Z">
                        </path>
                        <ellipse class="cls-10" cx="351.88" cy="115.35" rx="12.2" ry="0.24"></ellipse>
                        <path class="cls-10"
                            d="M339.69,115.91l-1.28.74a19.52,19.52,0,0,0-9.75,16.9h0a19.51,19.51,0,0,0,10.26,17.18l3.66,2">
                        </path>
                        <path class="cls-10"
                            d="M364.17,115.91l1.28.74a19.52,19.52,0,0,1,9.75,16.9h0a19.5,19.5,0,0,1-10.27,17.18l-3.65,2">
                        </path>
                        <line class="cls-10" x1="373.59" y1="125.79" x2="330.27" y2="125.79"></line>
                        <path class="cls-5"
                            d="M354.8,138.75a1.49,1.49,0,0,1,1.44-.86,2.29,2.29,0,0,1,1.88,1c1.05,1.58,2.37,2.65,7.12.63a23.53,23.53,0,0,0,2.69-1.52c.24-.29,0-.34,0-.34a1.14,1.14,0,0,0-.37-1.37c-.64-.59-3.9-2.9-6.64-3.2a4,4,0,0,0-2,.32,8.19,8.19,0,0,0-1.73.95,7.31,7.31,0,0,1-1.37,1,1.16,1.16,0,0,1-1.24-.11c-1.15-.87-2.29-2.51-7.94-1.66,0,0,.39,3.66,6,3.66,0,0-3.07-1.23-6,4C346.6,141.19,352.78,143.25,354.8,138.75Z">
                        </path>
                        <path class="cls-5"
                            d="M359.9,138.11a8.66,8.66,0,0,0-3.85,1.13c-1.25,1-1.39,2.58,0,2.88s3.52-.92,4.77-2.23">
                        </path>
                        <path class="cls-5" d="M362.19,140.44s.1,1.11,1.07.63a3.42,3.42,0,0,0,1.4-1.32"></path>
                        <path class="cls-5"
                            d="M360.76,133.39s-1.72-2.86-3.92-2.73h-.92a.54.54,0,0,0-.54.54h0a.53.53,0,0,0,.51.54l.4,0a.11.11,0,0,1,0,.21l-.22.15a.49.49,0,0,0-.19.62h0a.49.49,0,0,0,.52.3l.29,0a.11.11,0,0,1,.09.2l0,0a.39.39,0,0,0,0,.56h0a.48.48,0,0,0,.23.1l1,.16">
                        </path>
                        <path class="cls-3"
                            d="M339.11,28.1V26A23.76,23.76,0,0,1,362.87,2.25h0A23.75,23.75,0,0,1,386.62,26V152.7">
                        </path>
                        <path class="cls-5" d="M356.76,57.57a23.09,23.09,0,1,0-35.31,0Z"></path>
                        <path class="cls-6"
                            d="M184.41,260.09l19.08-64.78,19.77,3.47s12.68-18.49,15-33l-45.78,0a9.26,9.26,0,0,0-9.68,7.84L168.69,258.1Z">
                        </path>
                        <polygon class="cls-6" points="350.7 24.34 344.44 59.55 354.07 59.17 354.59 27.18 350.7 24.34">
                        </polygon>
                        <line class="cls-3" x1="1.25" y1="281.04" x2="460.02" y2="281.04"></line>
                        <line class="cls-3" x1="238.29" y1="206.03" x2="238.29" y2="273.93"></line>
                        <polyline class="cls-3" points="239.24 262.68 291.55 274.96 291.55 281.07"></polyline>
                        <polyline class="cls-3" points="223.37 266.79 188.58 274.96 188.58 281.07"></polyline>
                        <path class="cls-2"
                            d="M279.35,188.25l.19-1.7a14.38,14.38,0,0,0-12.68-15.89l-17.63-2a14.37,14.37,0,0,0-15.36,10.1c-2.25,7.41-6.07,16.52-12.08,21.3">
                        </path>
                        <path
                            d="M124.84,281.07s6.24-8,5.28-15.37l-4.23-1.06a7.1,7.1,0,0,1-5.21-5.36l-.39-1.79-1.8-.93-2.87,3a8,8,0,0,1-6.3,2.42c-4.09-.27-10.66-1.08-15.62-3.52-7.76-3.82-9.35,1.65-9.35,1.65Z">
                        </path>
                        <path
                            d="M183.16,281.07s1.84-10-2.39-16.07l-4.24,1a7.09,7.09,0,0,1-7.1-2.36l-1.17-1.4h-2l-1.18,3.95a8.06,8.06,0,0,1-4.48,5.05c-3.75,1.64-10,3.94-15.49,4.06-8.65.18-7.54,5.77-7.54,5.77Z">
                        </path>
                        <polygon class="cls-6"
                            points="123.68 247.46 137.19 260.09 177.19 207.83 185.17 165.8 123.68 247.46">
                        </polygon>
                        <path class="cls-3" d="M175.73,216.09l7.4-39.4A11.3,11.3,0,0,1,194,167.47l19.73-.52"></path>
                        <path class="cls-11"
                            d="M261,80.48,256,77.86a1.65,1.65,0,0,1-.71-2.24l6-11.5a1.76,1.76,0,0,1,2.36-.75l2.33,1.16L262.24,71A13.45,13.45,0,0,0,261,80.48Z">
                        </path>
                        <path class="cls-3"
                            d="M224.24,115.46c-6.46,4.81-11.23,2.94-11.23,2.94-7.47-1.31-6.45-9.49-2.88-17.53s36.24-25.05,36.24-25.05l10.68-10.56">
                        </path>
                        <polyline class="cls-3" points="230.96 103.84 253.81 81.99 259.16 80.18"></polyline>
                        <path class="cls-12"
                            d="M245.71,152.17l42.38,0c3.2.25,6.47-2.13,6.27-5.33a10.58,10.58,0,0,0-3.38-7.29,12.13,12.13,0,0,0-10.77-2.93l-.57.12-30.07,7.14c-1.15.42-3.21-.57-4.4-1l-15.54-5.33a1.9,1.9,0,0,0-1.88.51,25.77,25.77,0,0,0-5.14,7.75,1.63,1.63,0,0,0,.89,2.07h0a1.62,1.62,0,0,0,1.55-.15l3.4-2.3a.66.66,0,0,1,1,.32l.5,1.38a19.21,19.21,0,0,0,3.48,4.47,3.92,3.92,0,0,0,2.94,1.11Z">
                        </path>
                        <line class="cls-7" x1="279.63" y1="118.76" x2="278.25" y2="137.71"></line>
                        <path class="cls-12"
                            d="M230.31,144.83l-2.89,5.53a1.07,1.07,0,0,0,.57,1.48l.62.23a1.05,1.05,0,0,0,1-.19l2.48-2.48">
                        </path>
                        <polyline class="cls-3" points="229.45 145.7 231.79 143.32 237.2 143.32"></polyline>
                        <polygon class="cls-8"
                            points="261.37 39.29 243.68 39.29 243.68 53.12 235.64 39.29 205.28 39.29 205.28 2.25 261.37 2.25 261.37 39.29">
                        </polygon>
                        <path class="cls-10"
                            d="M233.32,14.39l-1.87-1.78a5.49,5.49,0,0,0-8.12.61h0a5.5,5.5,0,0,0,.37,7.17l9.61,10.05">
                        </path>
                        <path class="cls-10" d="M233.34,30.44l9.61-10a5.49,5.49,0,0,0-7.75-7.78l-1.88,1.78"></path>
                    </svg>